<?xml version="1.0" standalone="no"?><!DOCTYPE svg PUBLIC "-//W3C//DTD SVG 1.1//EN" "http://www.w3.org/Graphics/SVG/1.1/DTD/svg11.dtd"><svg class="icon" width="32px" height="32.00px" viewBox="0 0 1024 1024" version="1.1" xmlns="http://www.w3.org/2000/svg"><path fill="#fdc5a9" d="M725.333333 298.666667V213.333333a85.426667 85.426667 0 0 0-85.333333-85.333333H85.333333A85.426667 85.426667 0 0 0 0 213.333333v341.333334a85.426667 85.426667 0 0 0 85.333333 85.333333v106.666667a21.333333 21.333333 0 0 0 36.42 15.086666L243.5 640H256V426.666667c0-70.58 57.42-128 128-128zM170.666667 426.666667a42.666667 42.666667 0 1 1 42.666666-42.666667 42.666667 42.666667 0 0 1-42.666666 42.666667z m768-85.333334H384a85.426667 85.426667 0 0 0-85.333333 85.333334v341.333333a85.426667 85.426667 0 0 0 85.333333 85.333333h204.5l79.08 79.086667a21.333333 21.333333 0 0 0 30.173333 0L776.833333 853.333333H938.666667a85.426667 85.426667 0 0 0 85.333333-85.333333V426.666667a85.426667 85.426667 0 0 0-85.333333-85.333334zM512 640a42.666667 42.666667 0 1 1 42.666667-42.666667 42.666667 42.666667 0 0 1-42.666667 42.666667z m170.666667 0a42.666667 42.666667 0 1 1 42.666666-42.666667 42.666667 42.666667 0 0 1-42.666666 42.666667z m170.666666 0a42.666667 42.666667 0 1 1 42.666667-42.666667 42.666667 42.666667 0 0 1-42.666667 42.666667z"  /></svg>